<?xml version="1.0" standalone="no"?>
<!DOCTYPE svg PUBLIC "-//W3C//DTD SVG 20010904//EN"
 "http://www.w3.org/TR/2001/REC-SVG-20010904/DTD/svg10.dtd">
<svg version="1.0" xmlns="http://www.w3.org/2000/svg"
 width="500.000000pt" height="500.000000pt" viewBox="0 0 500.000000 500.000000"
 preserveAspectRatio="xMidYMid meet">
<metadata>
Created by potrace 1.14, written by Peter Selinger 2001-2017
</metadata>
<g transform="translate(0.000000,500.000000) scale(0.100000,-0.100000)"
fill="#000000" stroke="none">
<path d="M1701 3938 c-19 -35 -39 -70 -45 -78 -6 -8 -16 -24 -22 -35 -31 -58
-69 -124 -148 -257 -47 -81 -86 -149 -86 -151 0 -3 -24 -45 -54 -94 -29 -49
-64 -109 -78 -133 -14 -25 -78 -137 -143 -250 -246 -424 -408 -706 -427 -740
-25 -43 -367 -636 -448 -775 -32 -55 -101 -174 -154 -265 l-96 -165 1250 -3
c688 -1 1812 -1 2499 0 l1250 3 -61 105 c-34 58 -71 122 -82 142 -12 21 -54
95 -95 165 -41 70 -82 142 -91 158 -10 17 -58 100 -107 185 -50 85 -116 200
-148 255 -32 55 -66 114 -75 130 -44 76 -204 354 -225 390 -12 22 -71 123
-130 225 -59 102 -118 205 -132 229 -30 55 -190 331 -203 351 -5 8 -28 49 -52
90 -23 41 -101 176 -173 300 -71 124 -136 238 -144 253 -8 15 -18 24 -22 20
-7 -7 -68 -112 -134 -228 -63 -112 -411 -713 -425 -735 -6 -8 -13 -21 -17 -29
-3 -8 -36 -64 -71 -125 -36 -61 -74 -128 -85 -148 -12 -21 -24 -38 -27 -38 -4
0 -20 24 -35 53 -16 28 -62 108 -102 176 -40 67 -73 124 -73 126 0 1 -61 107
-135 235 -74 127 -135 234 -135 236 0 3 -15 28 -33 57 -18 29 -47 77 -64 107
-58 105 -175 305 -182 313 -4 4 -22 -21 -40 -55z m72 -495 c19 -32 44 -74 55
-93 42 -76 176 -307 314 -545 193 -334 208 -361 208 -373 0 -6 -48 -94 -107
-194 -58 -101 -120 -208 -136 -238 -16 -30 -33 -59 -38 -65 -4 -5 -33 -55 -64
-110 -32 -55 -73 -127 -93 -160 -19 -33 -40 -69 -46 -80 -129 -233 -201 -345
-220 -346 -80 -3 -1207 -1 -1210 2 -2 2 37 74 86 159 50 85 159 274 243 420
299 518 418 725 436 755 10 16 24 41 32 55 7 14 48 84 89 155 41 72 144 249
228 395 85 146 161 277 169 292 9 16 17 28 18 28 1 0 17 -26 36 -57z m1619
-163 c66 -115 307 -532 395 -683 56 -98 103 -182 103 -187 0 -6 5 -10 10 -10
6 0 10 -5 10 -10 0 -6 18 -40 40 -76 22 -36 40 -67 40 -69 0 -2 21 -39 46 -82
26 -43 97 -166 159 -273 62 -107 163 -283 225 -390 62 -107 121 -210 131 -227
17 -31 18 -33 1 -34 -23 -1 -1148 -1 -1189 0 -32 1 -35 5 -100 121 -11 19 -54
94 -95 165 -42 72 -85 147 -97 168 -12 20 -29 52 -40 70 -156 270 -207 359
-227 394 -13 23 -53 92 -89 153 -36 61 -65 116 -65 122 0 11 59 115 298 528
49 85 124 216 167 290 43 74 93 161 112 193 l35 59 55 -94 c31 -51 64 -109 75
-128z m-882 -1110 c0 -6 8 -23 19 -38 15 -23 276 -472 347 -597 12 -22 54 -96
93 -163 39 -68 71 -126 71 -128 0 -2 -243 -4 -540 -4 -297 0 -540 2 -540 4 0
2 16 33 36 68 20 34 48 83 62 108 14 25 44 77 67 115 23 39 57 97 76 130 18
33 41 72 49 86 247 433 260 454 260 419z"/>
</g>
</svg>
